<?xml version="1.0" encoding="UTF-8"?>
<svg id="Layer_1" data-name="Layer 1" xmlns="http://www.w3.org/2000/svg" viewBox="0 0 1061.33 2005.33">
  <defs>
    <style>
      .cls-1 {
        fill: #fff;
        opacity: .5;
      }

      .cls-1, .cls-2, .cls-3, .cls-4, .cls-5 {
        stroke-width: 0px;
      }

      .cls-2 {
        fill: #ce4756;
      }

      .cls-3 {
        fill: #5ca1c0;
      }

      .cls-4 {
        fill: #6ec3e6;
      }

      .cls-5 {
        fill: #f05264;
      }
    </style>
  </defs>
  <path class="cls-5" d="m282.25,398.3l-24.66-233.29c-2.1-19.61,4.34-39.11,17.34-52.73,34.57-36.19,99.99-91.22,194-107.63,139.6-24.36,249.15,52.68,301.24,99.73,20.31,18.35,30.83,46.67,27.87,75.39-7.64,74.09-15.28,148.19-22.92,222.28h-47.74l19.88-200.53c2.34-23.6-6.12-46.93-22.65-62.21-39.61-36.62-120.25-94.29-227.99-83.71-89.29,8.77-151.19,59.89-181.53,91.04-11.26,11.56-16.65,28.43-14.51,45.2,8.61,67.4,17.21,134.81,25.82,202.21l-44.14,4.24Z"/>
  <g>
    <g>
      <rect class="cls-3" x="128.96" y="943.36" width="860.01" height="132.22"/>
      <path class="cls-3" d="m995.22,1176.85H122.7c-36.51,0-66.11-29.6-66.11-66.11h0c0-36.51,29.6-66.11,66.11-66.11h872.52c36.51,0,66.11,29.6,66.11,66.11h0c0,36.51-29.6,66.11-66.11,66.11Z"/>
      <path class="cls-3" d="m948.84,1785.9H169.09c-60.59,0-109.71,49.12-109.71,109.71h0c0,60.59,49.12,109.71,109.71,109.71h779.75c60.59,0,109.71-49.12,109.71-109.71h0c0-60.59-49.12-109.71-109.71-109.71Z"/>
      <rect class="cls-3" x="128.96" y="1661.19" width="860.01" height="132.22"/>
      <rect class="cls-3" x="60.07" y="1534.12" width="997.78" height="132.22" rx="11.44" ry="11.44"/>
      <rect class="cls-3" x="130" y="1148.48" width="857.93" height="393.14"/>
      <path class="cls-3" d="m701,490.43h-290.85c-16.1,34.57-59.96,80.25-111.33,128.47-43.78,41.09-125.95,72.56-165.11,88.92-44.93,18.77-74.34,62.91-74.34,112.05v69.75c0,33.82,27.12,61.23,60.58,61.23h866.28c39.94,0,72.32-32.73,72.32-73.1v-72.78c0-41.47-24.94-78.79-63.04-94.19-49.23-19.89-161.97-54.02-216.58-112.98-34.85-37.63-62.33-75.85-77.93-107.37Z"/>
      <polygon class="cls-3" points="128.87 950.86 989.06 950.86 989.06 1044.75 128.94 961.08 128.87 950.86"/>
      <polygon class="cls-3" points="128.87 1175.91 987.67 1176.15 988.02 1269.1 128.94 1186.13 128.87 1175.91"/>
      <polygon class="cls-3" points="128.87 1666.02 988.97 1666.25 989.32 1758.59 128.94 1676.17 128.87 1666.02"/>
      <polygon class="cls-3" points="130.44 1533.19 987.78 1534.48 987.67 1505.99 130.44 1533.19"/>
      <path class="cls-3" d="m410.15,490.43h290.85c4.22,8.11,8.65,16.36,13.31,24.72,6.2,11.14,15.64,21.11,21.83,31.31-107.59-18.91-218.4-37.12-325.98-56.03Z"/>
      <g>
        <path class="cls-3" d="m410.69,549.95c-1.78,0-3.41.9-4.38,2.4-12.98,20.06-29.53,42.63-50.43,65.85-18.5,20.56-36.85,37.67-53.74,51.75-3.82,3.19-1.6,9.44,3.36,9.44h33.26c1.59,0,3.08-.7,4.09-1.94,13.25-16.41,27.43-36,41.22-58.89,12.93-21.47,23.42-42.47,31.59-61.11,1.55-3.53-1.03-7.49-4.85-7.48h-.11Z"/>
        <path class="cls-3" d="m478.68,550.38h0c4.27-.05,7.58,3.72,7.04,8.01-1.79,14.16-4.19,29.14-7.38,44.81-5.34,26.2-11.99,49.92-19.02,70.94-.96,2.87-3.64,4.78-6.64,4.78h-20.39c-5.54,0-8.9-6.17-5.91-10.88,11.19-17.67,22.94-39.84,32.47-66.48,5.9-16.47,10.16-31.7,13.06-45.61.67-3.23,3.5-5.52,6.76-5.56Z"/>
      </g>
      <g>
        <path class="cls-3" d="m698.61,549.95c1.78,0,3.41.9,4.38,2.4,12.98,20.06,29.53,42.63,50.43,65.85,18.5,20.56,36.85,37.67,53.74,51.75,3.82,3.19,1.6,9.44-3.36,9.44h-33.26c-1.59,0-3.08-.7-4.09-1.94-13.25-16.41-27.43-36-41.22-58.89-12.93-21.47-23.42-42.47-31.59-61.11-1.55-3.53,1.03-7.49,4.85-7.48h.11Z"/>
        <path class="cls-3" d="m630.97,550.38h0c-4.27-.05-7.58,3.72-7.04,8.01,1.79,14.16,4.19,29.14,7.38,44.81,5.34,26.2,11.98,49.92,19.02,70.94.96,2.87,3.64,4.78,6.64,4.78h20.39c5.54,0,8.9-6.17,5.91-10.88-11.19-17.67-22.94-39.84-32.47-66.48-5.89-16.47-10.16-31.7-13.06-45.61-.67-3.23-3.5-5.52-6.76-5.56Z"/>
      </g>
      <path class="cls-3" d="m550.88,678.45h0c-6.05,0-10.96-5.02-10.96-11.22l4.75-106.69c0-6.2,1.77-9.62,6.2-9.62h0c4.87-.18,7.13,3.96,7.13,10.15l3.83,106.15c0,6.2-4.91,11.22-10.96,11.22Z"/>
      <g>
        <rect class="cls-3" x="381.37" y="450.58" width="342.75" height="41.36" rx="2.36" ry="2.36"/>
        <rect class="cls-3" x="390.72" y="432.43" width="325.41" height="20.15" rx="1.21" ry="1.21"/>
        <rect class="cls-2" x="381.37" y="393.63" width="395.13" height="39.32" rx="2.36" ry="2.36"/>
        <rect class="cls-2" x="392.15" y="373.45" width="375.14" height="20.86" rx="1.21" ry="1.21"/>
      </g>
      <polygon class="cls-3" points="392.17 432.97 716.55 432.95 716.22 440.97 392.17 432.97"/>
    </g>
    <path class="cls-2" d="m386.3,241.93h307.45c11.37,0,20.6,9.23,20.6,20.6v111.62h-346.38v-113.88c0-10.12,8.22-18.34,18.34-18.34Z"/>
  </g>
  <g>
    <g>
      <rect class="cls-4" x="72.36" y="943.36" width="860.01" height="132.22"/>
      <path class="cls-4" d="m938.63,1176.85H66.11c-36.51,0-66.11-29.6-66.11-66.11h0c0-36.51,29.6-66.11,66.11-66.11h872.52c36.51,0,66.11,29.6,66.11,66.11h0c0,36.51-29.6,66.11-66.11,66.11Z"/>
      <path class="cls-4" d="m892.24,1785.9H112.5c-60.59,0-109.71,49.12-109.71,109.71h0c0,60.59,49.12,109.71,109.71,109.71h779.75c60.59,0,109.71-49.12,109.71-109.71h0c0-60.59-49.12-109.71-109.71-109.71Z"/>
      <rect class="cls-4" x="72.36" y="1661.19" width="860.01" height="132.22"/>
      <rect class="cls-4" x="3.48" y="1534.12" width="997.78" height="132.22" rx="11.44" ry="11.44"/>
      <rect class="cls-4" x="73.41" y="1148.48" width="857.93" height="393.14"/>
      <path class="cls-4" d="m644.4,490.43h-290.85c-16.1,34.57-59.96,80.25-111.33,128.47-43.78,41.09-125.95,72.56-165.11,88.92-44.93,18.77-74.34,62.91-74.34,112.05v69.75c0,33.82,27.12,61.23,60.58,61.23h866.28c39.94,0,72.32-32.73,72.32-73.1v-72.78c0-41.47-24.94-78.79-63.04-94.19-49.23-19.89-161.97-54.02-216.58-112.98-34.85-37.63-62.33-75.85-77.93-107.37Z"/>
      <polygon class="cls-3" points="72.28 950.86 932.47 950.86 932.47 1044.75 72.34 961.08 72.28 950.86"/>
      <polygon class="cls-3" points="72.28 1175.91 931.08 1176.15 931.42 1269.1 72.34 1186.13 72.28 1175.91"/>
      <polygon class="cls-3" points="72.28 1666.02 932.38 1666.25 932.73 1758.59 72.34 1676.17 72.28 1666.02"/>
      <polygon class="cls-3" points="73.84 1533.19 931.19 1534.48 931.08 1505.99 73.84 1533.19"/>
      <path class="cls-3" d="m353.56,490.43h290.85c4.22,8.11,8.65,16.36,13.31,24.72,6.2,11.14,15.64,21.11,21.83,31.31-107.59-18.91-218.4-37.12-325.98-56.03Z"/>
      <g>
        <path class="cls-3" d="m354.09,549.95c-1.78,0-3.41.9-4.38,2.4-12.98,20.06-29.53,42.63-50.43,65.85-18.5,20.56-36.85,37.67-53.74,51.75-3.82,3.19-1.6,9.44,3.36,9.44h33.26c1.59,0,3.08-.7,4.09-1.94,13.25-16.41,27.43-36,41.21-58.89,12.93-21.47,23.42-42.47,31.59-61.11,1.55-3.53-1.03-7.49-4.85-7.48h-.11Z"/>
        <path class="cls-3" d="m422.08,550.38h0c4.27-.05,7.59,3.72,7.04,8.01-1.79,14.16-4.19,29.14-7.38,44.81-5.34,26.2-11.98,49.92-19.02,70.94-.96,2.87-3.64,4.78-6.64,4.78h-20.39c-5.54,0-8.9-6.17-5.91-10.88,11.19-17.67,22.94-39.84,32.47-66.48,5.89-16.47,10.16-31.7,13.06-45.61.67-3.23,3.5-5.52,6.76-5.56Z"/>
      </g>
      <g>
        <path class="cls-3" d="m642.02,549.95c1.78,0,3.41.9,4.38,2.4,12.98,20.06,29.53,42.63,50.43,65.85,18.5,20.56,36.85,37.67,53.74,51.75,3.82,3.19,1.6,9.44-3.36,9.44h-33.26c-1.59,0-3.08-.7-4.09-1.94-13.25-16.41-27.43-36-41.22-58.89-12.93-21.47-23.42-42.47-31.59-61.11-1.55-3.53,1.03-7.49,4.85-7.48h.11Z"/>
        <path class="cls-3" d="m574.38,550.38h0c-4.27-.05-7.58,3.72-7.04,8.01,1.79,14.16,4.19,29.14,7.38,44.81,5.34,26.2,11.99,49.92,19.02,70.94.96,2.87,3.64,4.78,6.64,4.78h20.39c5.54,0,8.9-6.17,5.91-10.88-11.19-17.67-22.94-39.84-32.47-66.48-5.9-16.47-10.16-31.7-13.06-45.61-.67-3.23-3.5-5.52-6.76-5.56Z"/>
      </g>
      <path class="cls-3" d="m494.28,678.45h0c-6.05,0-10.96-5.02-10.96-11.22l4.75-106.69c0-6.2,1.77-9.62,6.2-9.62h0c4.87-.18,7.13,3.96,7.13,10.15l3.83,106.15c0,6.2-4.91,11.22-10.96,11.22Z"/>
      <g>
        <rect class="cls-4" x="324.78" y="450.58" width="342.75" height="41.36" rx="2.36" ry="2.36"/>
        <rect class="cls-4" x="334.13" y="432.43" width="325.41" height="20.15" rx="1.21" ry="1.21"/>
        <rect class="cls-5" x="281.56" y="393.63" width="443.23" height="39.32" rx="2.36" ry="2.36"/>
        <rect class="cls-5" x="293.64" y="373.45" width="420.8" height="20.86" rx="1.21" ry="1.21"/>
      </g>
      <polygon class="cls-3" points="335.58 432.97 659.96 432.95 659.62 440.97 335.58 432.97"/>
      <polygon class="cls-2" points="335.58 373.07 716.78 373.22 716.09 393.14 335.58 373.07"/>
    </g>
    <path class="cls-5" d="m354.86,241.93h304.79c11.37,0,20.6,9.23,20.6,20.6v111.62h-343.73v-113.88c0-10.12,8.22-18.34,18.34-18.34Z"/>
  </g>
  <path class="cls-1" d="m30.05,889.49l-1.49-42.46c.34-34.16,15.98-62.37,42.91-77.93l67.01-38.18,11.45,20.08-66.95,38.15c-19.91,11.5-31.05,31.97-31.31,57.59l1.48,41.94-23.1.81Z"/>
  <path class="cls-1" d="m19.82,1905.55c-1.36-16.03.09-46.88,25.06-73.31,7.24-7.65,15.91-14.32,25.78-19.8l11.23,20.21c-7.8,4.34-14.6,9.55-20.21,15.48-18.79,19.88-19.86,43.29-18.83,55.47l-23.04,1.95Z"/>
  <path class="cls-1" d="m28.66,1622.16c-1.4-13.71.03-40.03,25.39-62.32,7.15-6.28,15.67-11.72,25.33-16.18l9.69,20.99c-7.64,3.53-14.29,7.76-19.76,12.56-17.57,15.45-18.6,33.33-17.65,42.61l-23,2.35Z"/>
  <path class="cls-1" d="m13.66,1132.64c-1.4-13.71.03-40.02,25.39-62.31,7.12-6.27,15.64-11.71,25.33-16.18l9.69,20.99c-7.66,3.54-14.3,7.76-19.75,12.56-17.58,15.45-18.61,33.32-17.66,42.6l-23,2.35Z"/>
</svg>