<?xml version="1.0" encoding="UTF-8"?>
<svg id="Layer_1" data-name="Layer 1" xmlns="http://www.w3.org/2000/svg" viewBox="0 0 1981.85 367.49">
  <defs>
    <style>
      .cls-1, .cls-2 {
        isolation: isolate;
      }

      .cls-2 {
        fill: #fff;
        opacity: .5;
      }

      .cls-2, .cls-3, .cls-4, .cls-5, .cls-6, .cls-7 {
        stroke-width: 0px;
      }

      .cls-3 {
        fill: #ce4756;
      }

      .cls-4 {
        fill: #5ca1c0;
      }

      .cls-5 {
        fill: #6ec3e6;
      }

      .cls-6 {
        fill: #f05264;
      }

      .cls-7 {
        fill: #6ec2e5;
      }
    </style>
  </defs>
  <g>
    <path class="cls-6" d="m50.12,70.73l-4.38-41.43c-.37-3.48.77-6.95,3.08-9.36C54.96,13.51,66.58,3.74,83.27.83c24.79-4.33,44.24,9.35,53.49,17.71,3.61,3.26,5.47,8.29,4.95,13.39-1.36,13.16-2.71,26.31-4.07,39.47h-8.48l3.53-35.61c.42-4.19-1.09-8.33-4.02-11.05-7.03-6.5-21.35-16.74-40.49-14.86-15.85,1.56-26.85,10.64-32.24,16.17-2,2.05-2.96,5.05-2.58,8.03,1.53,11.97,3.06,23.94,4.58,35.91l-7.84.75h.02Z"/>
    <g>
      <g>
        <rect class="cls-4" x="22.9" y="167.51" width="152.72" height="23.48"/>
        <path class="cls-4" d="m176.72,208.98H21.79c-6.48,0-11.74-5.26-11.74-11.74h0c0-6.48,5.26-11.74,11.74-11.74h154.94c6.48,0,11.74,5.26,11.74,11.74h0c0,6.48-5.26,11.74-11.74,11.74h-.01Z"/>
        <path class="cls-4" d="m168.49,317.13H30.03c-10.76,0-19.48,8.72-19.48,19.48h0c0,10.76,8.72,19.48,19.48,19.48h138.46c10.76,0,19.48-8.72,19.48-19.48h0c0-10.76-8.72-19.48-19.48-19.48Z"/>
        <rect class="cls-4" x="22.9" y="294.98" width="152.72" height="23.48"/>
        <rect class="cls-4" x="10.67" y="272.42" width="177.18" height="23.48" rx="7.62" ry="7.62"/>
        <rect class="cls-4" x="23.08" y="203.94" width="152.34" height="69.81"/>
        <path class="cls-4" d="m124.48,87.09h-51.65c-2.86,6.14-10.65,14.25-19.77,22.81-7.77,7.3-22.36,12.88-29.32,15.79-7.98,3.33-13.2,11.17-13.2,19.9v12.39c0,6.01,4.82,10.87,10.76,10.87h153.83c7.09,0,12.84-5.81,12.84-12.98v-12.92c0-7.36-4.43-13.99-11.19-16.73-8.74-3.53-28.76-9.59-38.46-20.06-6.19-6.68-11.07-13.47-13.84-19.07Z"/>
        <polygon class="cls-4" points="22.88 168.85 175.63 168.85 175.63 185.52 22.9 170.66 22.88 168.85"/>
        <polygon class="cls-4" points="22.88 208.81 175.38 208.85 175.44 225.36 22.9 210.62 22.88 208.81"/>
        <polygon class="cls-4" points="22.88 295.84 175.61 295.88 175.68 312.28 22.9 297.64 22.88 295.84"/>
        <polygon class="cls-4" points="23.16 272.25 175.4 272.48 175.38 267.42 23.16 272.25"/>
        <path class="cls-4" d="m72.83,87.09h51.65c.75,1.44,1.54,2.9,2.36,4.39,1.1,1.98,2.78,3.75,3.88,5.56-19.1-3.36-38.78-6.59-57.89-9.95Z"/>
        <g>
          <path class="cls-4" d="m72.93,97.66c-.32,0-.61.16-.78.43-2.31,3.56-5.24,7.57-8.95,11.69-3.29,3.65-6.54,6.69-9.54,9.19-.68.57-.28,1.68.6,1.68h5.91c.28,0,.55-.12.73-.35,2.35-2.91,4.87-6.39,7.32-10.46,2.3-3.81,4.16-7.54,5.61-10.85.27-.63-.18-1.33-.86-1.33h-.04Z"/>
          <path class="cls-4" d="m85,97.73h0c.76,0,1.35.66,1.25,1.42-.32,2.51-.74,5.17-1.31,7.96-.95,4.65-2.13,8.86-3.38,12.6-.17.51-.65.85-1.18.85h-3.62c-.98,0-1.58-1.09-1.05-1.93,1.99-3.14,4.07-7.08,5.77-11.81,1.05-2.93,1.8-5.63,2.32-8.1.12-.57.62-.98,1.2-.99Z"/>
        </g>
        <g>
          <path class="cls-4" d="m124.05,97.66c.32,0,.61.16.78.43,2.31,3.56,5.24,7.57,8.95,11.69,3.29,3.65,6.54,6.69,9.54,9.19.68.57.28,1.68-.6,1.68h-5.91c-.28,0-.55-.12-.73-.35-2.35-2.91-4.87-6.39-7.32-10.46-2.3-3.81-4.16-7.54-5.61-10.85-.27-.63.18-1.33.86-1.33h.04Z"/>
          <path class="cls-4" d="m112.04,97.73h0c-.76,0-1.35.66-1.25,1.42.32,2.51.74,5.17,1.31,7.96.95,4.65,2.13,8.86,3.38,12.6.17.51.65.85,1.18.85h3.62c.98,0,1.58-1.09,1.05-1.93-1.99-3.14-4.07-7.08-5.77-11.81-1.05-2.93-1.8-5.63-2.32-8.1-.12-.57-.62-.98-1.2-.99Z"/>
        </g>
        <path class="cls-4" d="m97.82,120.47h0c-1.07,0-1.95-.89-1.95-1.99l.84-18.94c0-1.1.31-1.71,1.1-1.71h0c.86-.03,1.27.7,1.27,1.8l.68,18.85c0,1.1-.87,1.99-1.95,1.99h.01Z"/>
        <g>
          <rect class="cls-4" x="67.72" y="80.01" width="60.86" height="7.34" rx="2.36" ry="2.36"/>
          <rect class="cls-4" x="69.38" y="76.79" width="57.78" height="3.58" rx="1.16" ry="1.16"/>
          <rect class="cls-3" x="67.72" y="69.9" width="70.16" height="6.98" rx="2.27" ry="2.27"/>
          <rect class="cls-3" x="69.64" y="66.31" width="66.61" height="3.7" rx="1.2" ry="1.2"/>
        </g>
        <polygon class="cls-4" points="69.64 76.88 127.24 76.88 127.18 78.3 69.64 76.88"/>
      </g>
      <path class="cls-3" d="m80.59,42.96h31.01c8.42,0,15.25,6.83,15.25,15.25v8.23h-61.51v-8.23c0-8.42,6.83-15.25,15.25-15.25Z"/>
    </g>
    <g>
      <g>
        <rect class="cls-5" x="12.85" y="167.51" width="152.72" height="23.48"/>
        <path class="cls-5" d="m166.68,208.98H11.74c-6.48,0-11.74-5.26-11.74-11.74h0c0-6.48,5.26-11.74,11.74-11.74h154.94c6.48,0,11.74,5.26,11.74,11.74h0c0,6.48-5.26,11.74-11.74,11.74h0Z"/>
        <path class="cls-5" d="m158.44,317.13H19.98c-10.76,0-19.48,8.72-19.48,19.48h0c0,10.76,8.72,19.48,19.48,19.48h138.46c10.76,0,19.48-8.72,19.48-19.48h0c0-10.76-8.72-19.48-19.48-19.48h0Z"/>
        <rect class="cls-5" x="12.85" y="294.98" width="152.72" height="23.48"/>
        <rect class="cls-5" x=".62" y="272.42" width="177.18" height="23.48" rx="7.62" ry="7.62"/>
        <rect class="cls-5" x="13.04" y="203.94" width="152.34" height="69.81"/>
        <path class="cls-5" d="m114.43,87.09h-51.65c-2.86,6.14-10.65,14.25-19.77,22.81-7.77,7.3-22.37,12.88-29.32,15.79-7.98,3.33-13.2,11.17-13.2,19.9v12.39c0,6.01,4.82,10.87,10.76,10.87h153.83c7.09,0,12.84-5.81,12.84-12.98v-12.92c0-7.36-4.43-13.99-11.19-16.73-8.74-3.53-28.76-9.59-38.46-20.06-6.19-6.68-11.07-13.47-13.84-19.07Z"/>
        <polygon class="cls-4" points="12.83 168.85 165.58 168.85 165.58 185.52 12.85 170.66 12.83 168.85"/>
        <polygon class="cls-4" points="12.83 208.81 165.33 208.85 165.4 225.36 12.85 210.62 12.83 208.81"/>
        <polygon class="cls-4" points="12.83 295.84 165.57 295.88 165.63 312.28 12.85 297.64 12.83 295.84"/>
        <polygon class="cls-4" points="13.11 272.25 165.35 272.48 165.33 267.42 13.11 272.25"/>
        <path class="cls-4" d="m62.78,87.09h51.65c.75,1.44,1.54,2.9,2.36,4.39,1.1,1.98,2.78,3.75,3.88,5.56-19.1-3.36-38.78-6.59-57.89-9.95Z"/>
        <g>
          <path class="cls-4" d="m62.88,97.66c-.32,0-.61.16-.78.43-2.31,3.56-5.24,7.57-8.95,11.69-3.29,3.65-6.54,6.69-9.54,9.19-.68.57-.28,1.68.6,1.68h5.91c.28,0,.55-.12.73-.35,2.35-2.91,4.87-6.39,7.32-10.46,2.3-3.81,4.16-7.54,5.61-10.85.27-.63-.18-1.33-.86-1.33h-.04Z"/>
          <path class="cls-4" d="m74.95,97.73h0c.76,0,1.35.66,1.25,1.42-.32,2.51-.74,5.17-1.31,7.96-.95,4.65-2.13,8.86-3.38,12.6-.17.51-.65.85-1.18.85h-3.62c-.98,0-1.58-1.09-1.05-1.93,1.99-3.14,4.07-7.08,5.77-11.81,1.05-2.93,1.8-5.63,2.32-8.1.12-.57.62-.98,1.2-.99Z"/>
        </g>
        <g>
          <path class="cls-4" d="m114.01,97.66c.32,0,.61.16.78.43,2.31,3.56,5.24,7.57,8.95,11.69,3.29,3.65,6.54,6.69,9.54,9.19.68.57.28,1.68-.6,1.68h-5.91c-.28,0-.55-.12-.73-.35-2.35-2.91-4.87-6.39-7.32-10.46-2.3-3.81-4.16-7.54-5.61-10.85-.27-.63.18-1.33.86-1.33h.04Z"/>
          <path class="cls-4" d="m101.99,97.73h0c-.76,0-1.35.66-1.25,1.42.32,2.51.74,5.17,1.31,7.96.95,4.65,2.13,8.86,3.38,12.6.17.51.65.85,1.18.85h3.62c.98,0,1.58-1.09,1.05-1.93-1.99-3.14-4.07-7.08-5.77-11.81-1.05-2.93-1.8-5.63-2.32-8.1-.12-.57-.62-.98-1.2-.99Z"/>
        </g>
        <path class="cls-4" d="m87.77,120.47h0c-1.07,0-1.95-.89-1.95-1.99l.84-18.94c0-1.1.31-1.71,1.1-1.71h0c.86-.03,1.27.7,1.27,1.8l.68,18.85c0,1.1-.87,1.99-1.95,1.99h.01Z"/>
        <g>
          <rect class="cls-5" x="57.67" y="80.01" width="60.86" height="7.34" rx="2.36" ry="2.36"/>
          <rect class="cls-5" x="59.33" y="76.79" width="57.78" height="3.58" rx="1.16" ry="1.16"/>
          <rect class="cls-6" x="50" y="69.9" width="78.71" height="6.98" rx="2.27" ry="2.27"/>
          <rect class="cls-6" x="52.14" y="66.31" width="74.72" height="3.7" rx="1.2" ry="1.2"/>
        </g>
        <polygon class="cls-4" points="59.59 76.88 117.19 76.88 117.13 78.3 59.59 76.88"/>
        <polygon class="cls-3" points="59.59 66.25 127.28 66.27 127.16 69.81 59.59 66.25"/>
      </g>
      <path class="cls-6" d="m75.01,42.96h30.54c8.42,0,15.25,6.83,15.25,15.25v8.23h-61.04v-8.23c0-8.42,6.83-15.25,15.25-15.25Z"/>
    </g>
    <path class="cls-2" d="m5.34,157.95l-.26-7.54c.06-6.07,2.84-11.08,7.62-13.84l11.9-6.78,2.03,3.57-11.89,6.77c-3.53,2.04-5.51,5.68-5.56,10.23l.26,7.45-4.1.14h0Z"/>
    <path class="cls-2" d="m3.52,338.37c-.24-2.85.02-8.32,4.45-13.02,1.29-1.36,2.83-2.54,4.58-3.52l1.99,3.59c-1.38.77-2.59,1.69-3.59,2.75-3.34,3.53-3.53,7.69-3.34,9.85l-4.09.35h0Z"/>
    <path class="cls-2" d="m5.09,288.05c-.25-2.43,0-7.11,4.51-11.07,1.27-1.11,2.78-2.08,4.5-2.87l1.72,3.73c-1.36.63-2.54,1.38-3.51,2.23-3.12,2.74-3.3,5.92-3.13,7.57l-4.08.42h-.01Z"/>
    <path class="cls-2" d="m2.43,201.13c-.25-2.43,0-7.11,4.51-11.07,1.26-1.11,2.78-2.08,4.5-2.87l1.72,3.73c-1.36.63-2.54,1.38-3.51,2.23-3.12,2.74-3.3,5.92-3.14,7.56l-4.08.42h0Z"/>
  </g>
  <g class="cls-1">
    <g class="cls-1">
      <path class="cls-7" d="m297.42,301.06c-18.5,0-34.06-4.14-46.69-12.41-12.63-8.27-21.52-19.52-26.68-33.75l31.48-18.41c7.29,19.03,21.61,28.55,42.95,28.55,10.31,0,17.87-1.87,22.68-5.6,4.8-3.74,7.2-8.45,7.2-14.14,0-6.58-2.93-11.69-8.8-15.34-5.87-3.64-16.37-7.6-31.48-11.87-8.36-2.49-15.43-4.98-21.21-7.47-5.78-2.49-11.56-5.82-17.34-10-5.78-4.18-10.18-9.47-13.21-15.87-3.03-6.4-4.54-13.87-4.54-22.41,0-16.9,6-30.37,18.01-40.42,12-10.05,26.45-15.07,43.35-15.07,15.12,0,28.41,3.69,39.88,11.07,11.47,7.38,20.41,17.65,26.81,30.81l-30.95,17.87c-7.47-16.01-19.39-24.01-35.75-24.01-7.65,0-13.65,1.73-18.01,5.2-4.36,3.47-6.54,7.96-6.54,13.47,0,5.87,2.44,10.63,7.34,14.27,4.89,3.65,14.27,7.6,28.15,11.87,5.69,1.78,10,3.16,12.94,4.13,2.93.98,6.94,2.49,12,4.54,5.07,2.05,8.98,3.96,11.74,5.74,2.76,1.78,5.91,4.18,9.47,7.2,3.56,3.03,6.27,6.14,8.14,9.34,1.87,3.2,3.47,7.07,4.8,11.6s2,9.47,2,14.81c0,17.25-6.27,30.95-18.81,41.08-12.54,10.14-28.86,15.21-48.95,15.21Z"/>
      <path class="cls-7" d="m475.63,163.94h34.42v133.39h-34.42v-14.94c-8.36,12.45-21.61,18.67-39.75,18.67-14.58,0-26.64-4.89-36.15-14.67-9.52-9.78-14.27-23.3-14.27-40.55v-81.9h34.41v77.63c0,8.9,2.4,15.7,7.2,20.41,4.8,4.71,11.21,7.07,19.21,7.07,8.89,0,16.01-2.76,21.34-8.27,5.33-5.51,8-13.78,8-24.81v-72.03Z"/>
      <path class="cls-7" d="m689.05,160.2c15.29,0,27.52,4.98,36.68,14.94,9.16,9.96,13.74,23.3,13.74,40.02v82.17h-34.41v-79.77c0-8-1.96-14.23-5.87-18.67-3.92-4.44-9.43-6.67-16.54-6.67-7.83,0-13.92,2.58-18.27,7.74-4.36,5.16-6.54,12.63-6.54,22.41v74.96h-34.41v-79.77c0-8-1.96-14.23-5.87-18.67-3.91-4.44-9.43-6.67-16.54-6.67-7.65,0-13.74,2.58-18.27,7.74-4.54,5.16-6.8,12.63-6.8,22.41v74.96h-34.41v-133.39h34.41v14.14c8-11.91,20.36-17.87,37.08-17.87s28.45,6.4,36.28,19.21c8.89-12.81,22.14-19.21,39.75-19.21Z"/>
      <path class="cls-7" d="m846.45,160.2c17.96,0,33.3,6.8,46.02,20.41,12.71,13.61,19.08,30.28,19.08,50.02s-6.36,36.42-19.08,50.02c-12.72,13.61-28.06,20.41-46.02,20.41s-33.08-6.49-43.22-19.48v15.74h-34.42V110.58h34.42v69.1c10.14-12.98,24.54-19.47,43.22-19.47Zm-32.81,97.51c6.94,7.03,15.74,10.54,26.41,10.54s19.52-3.51,26.54-10.54c7.02-7.02,10.54-16.05,10.54-27.08s-3.51-20.05-10.54-27.08c-7.03-7.02-15.87-10.54-26.54-10.54s-19.48,3.51-26.41,10.54c-6.94,7.03-10.4,16.05-10.4,27.08s3.47,20.05,10.4,27.08Z"/>
      <path class="cls-7" d="m964.9,244.77c4.62,16.72,17.16,25.08,37.62,25.08,13.16,0,23.12-4.44,29.88-13.34l27.75,16.01c-13.16,19.03-32.55,28.55-58.16,28.55-22.06,0-39.75-6.67-53.09-20.01-13.34-13.34-20.01-30.15-20.01-50.42s6.58-36.86,19.74-50.29c13.16-13.43,30.05-20.14,50.69-20.14,19.56,0,35.7,6.76,48.42,20.28,12.71,13.52,19.07,30.24,19.07,50.15,0,4.45-.45,9.16-1.33,14.14h-100.58Zm-.53-26.68h68.03c-1.96-9.07-6-15.83-12.14-20.28-6.14-4.44-13.12-6.67-20.94-6.67-9.25,0-16.9,2.36-22.94,7.07-6.05,4.71-10.05,11.34-12,19.88Z"/>
      <path class="cls-7" d="m1125.23,186.88c3.2-8.54,8.49-14.94,15.87-19.21,7.38-4.27,15.61-6.4,24.68-6.4v38.42c-10.5-1.24-19.88.89-28.15,6.4-8.27,5.51-12.41,14.67-12.41,27.48v63.76h-34.41v-133.39h34.41v22.94Z"/>
      <path class="cls-7" d="m1376.83,297.33l-11.87-33.61h-76.71l-11.2,33.61h-39.75l65.36-186.75h45.62l65.88,186.75h-37.32Zm-76.59-68.03h52.56l-26.95-76.3-25.61,76.3Z"/>
      <path class="cls-7" d="m1508.32,160.2c17.96,0,33.3,6.8,46.02,20.41,12.71,13.61,19.08,30.28,19.08,50.02s-6.36,36.42-19.08,50.02c-12.72,13.61-28.06,20.41-46.02,20.41s-33.08-6.49-43.22-19.48v15.74h-34.42V110.58h34.42v69.1c10.14-12.98,24.54-19.47,43.22-19.47Zm-32.81,97.51c6.94,7.03,15.74,10.54,26.41,10.54s19.52-3.51,26.54-10.54c7.02-7.02,10.54-16.05,10.54-27.08s-3.51-20.05-10.54-27.08c-7.03-7.02-15.87-10.54-26.54-10.54s-19.48,3.51-26.41,10.54c-6.94,7.03-10.4,16.05-10.4,27.08s3.47,20.05,10.4,27.08Z"/>
      <path class="cls-7" d="m1699.07,163.94h34.42v133.39h-34.42v-15.74c-10.32,12.99-24.81,19.48-43.48,19.48s-33.04-6.8-45.75-20.41c-12.72-13.61-19.08-30.28-19.08-50.02s6.36-36.42,19.08-50.02c12.71-13.61,27.97-20.41,45.75-20.41,18.67,0,33.17,6.49,43.48,19.47v-15.74Zm-63.49,93.77c6.94,7.03,15.74,10.54,26.41,10.54s19.52-3.51,26.54-10.54,10.54-16.05,10.54-27.08-3.51-20.05-10.54-27.08c-7.03-7.02-15.87-10.54-26.54-10.54s-19.47,3.51-26.41,10.54c-6.94,7.03-10.4,16.05-10.4,27.08s3.47,20.05,10.4,27.08Z"/>
      <path class="cls-7" d="m1865.8,110.58h34.42v186.75h-34.42v-15.74c-10.14,12.99-24.54,19.48-43.22,19.48s-33.31-6.8-46.02-20.41c-12.72-13.61-19.08-30.28-19.08-50.02s6.36-36.42,19.08-50.02c12.71-13.61,28.05-20.41,46.02-20.41s33.08,6.49,43.22,19.47v-69.1Zm-63.36,147.13c7.02,7.03,15.87,10.54,26.54,10.54s19.47-3.51,26.41-10.54c6.94-7.02,10.4-16.05,10.4-27.08s-3.47-20.05-10.4-27.08c-6.94-7.02-15.74-10.54-26.41-10.54s-19.52,3.51-26.54,10.54c-7.03,7.03-10.54,16.05-10.54,27.08s3.51,20.05,10.54,27.08Z"/>
      <path class="cls-7" d="m1948.77,147.93c-5.69,0-10.63-2.09-14.81-6.27-4.18-4.18-6.27-9.11-6.27-14.81s2.09-10.67,6.27-14.94c4.18-4.27,9.11-6.4,14.81-6.4s10.89,2.13,15.07,6.4c4.18,4.27,6.27,9.25,6.27,14.94s-2.09,10.63-6.27,14.81-9.2,6.27-15.07,6.27Zm-17.07,149.4v-133.39h34.41v133.39h-34.41Z"/>
    </g>
  </g>
</svg>